<svg width="20" height="20" fill="none" xmlns="http://www.w3.org/2000/svg"><path d="M17.3 12.3c-.1-.7-.7-1.2-1.3-1.4-2.6-.6-3.2-2-3.3-3.7A15 15 0 0 0 10 7a15 15 0 0 0-2.7.2c0 1.6-.7 3.1-3.3 3.7-.6.2-1.2.7-1.3 1.4l-.5 3.4a2 2 0 0 0 2 2.3h11.6a2 2 0 0 0 2-2.3l-.5-3.4ZM10 15.5A2.5 2.5 0 0 1 7.5 13c0-1.4 1.1-2.5 2.5-2.5s2.5 1.1 2.5 2.5-1.1 2.5-2.5 2.5ZM20 6c0-1.5-3.9-4-10-4S0 4.5 0 6s0 3.5 2.6 3.1c3-.4 2.7-1.4 2.7-2.8C5.3 5.3 7.7 5 10 5c2.3 0 4.7.2 4.7 1.3 0 1.4-.2 2.4 2.7 2.8C20 9.5 20 7.5 20 6Z" fill="#333"/></svg>