<svg width="218" height="53" fill="none" xmlns="http://www.w3.org/2000/svg"><path d="M45.4 44.7c-5 5-11.2 7.6-18.5 7.6-7.3 0-13.5-2.5-18.6-7.6-5-5-7.5-11.3-7.5-18.6A25.7 25.7 0 0 1 27 0a25 25 0 0 1 18.5 7.6 25 25 0 0 1 7.7 18.5c0 7.3-2.6 13.5-7.7 18.6Zm-31.2-5.6c3.4 3.4 7.7 5.1 12.7 5.1a17.6 17.6 0 0 0 17.9-18 18 18 0 0 0-5.2-13 17 17 0 0 0-12.7-5.1A17.5 17.5 0 0 0 9 26a18 18 0 0 0 5.2 13Zm67 13.2c-7.9 0-13.3-3.1-16.2-9.2l7-4.2c1.7 3.5 4.8 5.3 9.2 5.3 2.9 0 5.1-.7 6.6-2a7.8 7.8 0 0 0 2.4-6.1V.9h8.3v35.2a15 15 0 0 1-4.9 12 18.5 18.5 0 0 1-12.4 4.2Zm48.5 0c-7.8 0-13.2-3.1-16.2-9.2l7.1-4.2c1.7 3.5 4.7 5.3 9.2 5.3 2.9 0 5-.7 6.6-2a7.8 7.8 0 0 0 2.4-6.1V.9h8.3v35.2a15 15 0 0 1-5 12 18.5 18.5 0 0 1-12.4 4.2Zm79.9-7.6c-5 5-11.2 7.6-18.5 7.6-7.3 0-13.5-2.5-18.6-7.6-5-5-7.6-11.3-7.6-18.6 0-7.3 2.6-13.4 7.6-18.5 5.1-5 11.3-7.6 18.6-7.6a25 25 0 0 1 18.5 7.6 25 25 0 0 1 7.6 18.5c0 7.3-2.5 13.5-7.6 18.6Zm-31.3-5.6c3.5 3.4 7.7 5.1 12.8 5.1a17.6 17.6 0 0 0 17.9-18 18 18 0 0 0-5.2-13A17 17 0 0 0 191 8.1a17.5 17.5 0 0 0-17.9 18c0 5.2 1.7 9.5 5.1 13Z" fill="#fff"/><path d="M37 24v-.2l-3-5.3-.5-.5H21l-3.8 5.6v.1l-.2.2v.6l.1.2 9.2 12.9.2.2.2.1.3.1h.3l.2-.2.2-.2 9.1-12.9.2-.4V24Zm-5-.3 1.4-2.6 1.3 2.6H32Zm-.7 1.6h3l-5 7.3 2-7.3Zm-.8-2.4-1.8-2.8H32l-1.5 2.8Zm-6 2.4h5L27 34l-2.5-8.7Zm.5-1.6 2-3 2 3h-4Zm-1.4-1-.8-2.6h2.5l-1.7 2.6Zm1.2 9.9-5.2-7.3h3l2.2 7.3ZM21.3 21l.8 2.6h-2.6l1.8-2.6ZM201 24v-.2l-3-5.3-.5-.5H185l-3.8 5.6v.1l-.2.2v.6l.1.2 9.2 12.9.2.2.2.1.3.1h.3l.2-.2.2-.2 9.1-12.9.2-.4V24Zm-5-.3 1.4-2.6 1.3 2.6H196Zm-.7 1.6h3l-5 7.3 2-7.3Zm-.8-2.4-1.8-2.8h3.3l-1.5 2.8Zm-6 2.4h5L191 34l-2.5-8.7Zm.5-1.6 2-3 2 3h-4Zm-1.4-1-.8-2.6h2.5l-1.7 2.6Zm1.2 9.9-5.2-7.3h3l2.2 7.3ZM185.3 21l.8 2.6h-2.6l1.8-2.6Z" fill="#fff"/></svg>